<?xml version="1.0" encoding="utf-8"?>
<!-- Generator: Adobe Illustrator 21.1.0, SVG Export Plug-In . SVG Version: 6.00 Build 0)  -->
<svg version="1.1" id="Слой_1" xmlns="http://www.w3.org/2000/svg" xmlns:xlink="http://www.w3.org/1999/xlink" x="0px" y="0px"
	 viewBox="0 0 17 17" style="enable-background:new 0 0 17 17;" xml:space="preserve">
<style type="text/css">
	.st0{fill:#314659;}
</style>
<path class="st0" d="M4.8,10.7h0.8l0.3-0.3c-1-1.1-1.5-2.6-1.5-4.1C4.4,2.8,7.2,0,10.7,0S17,2.8,17,6.3s-2.8,6.3-6.3,6.3l0,0
	c-1.5,0-3-0.5-4.1-1.5l-0.3,0.3v0.8L1.4,17L0,15.6C0,15.6,4.8,10.7,4.8,10.7z M10.7,10.7c2.4,0,4.4-1.9,4.4-4.4c0,0,0,0,0,0
	c0-2.4-1.9-4.4-4.4-4.4c0,0,0,0,0,0c-2.4,0-4.4,1.9-4.4,4.4c0,0,0,0,0,0C6.3,8.7,8.3,10.7,10.7,10.7C10.7,10.7,10.7,10.7,10.7,10.7z
	"/>
</svg>
